<svg width="137" height="48" viewBox="0 0 137 48" fill="none" xmlns="http://www.w3.org/2000/svg">
<g clip-path="url(#clip0_6679_6539)">
<path d="M82.2324 15.3729V7.58008H84.8502C85.774 7.58008 86.5441 7.89566 87.1592 8.50173C87.7499 9.1078 88.0574 9.89676 88.0574 10.8447V12.1345C88.0574 13.0825 87.7499 13.8727 87.1592 14.4775C86.5686 15.0836 85.7997 15.3992 84.8502 15.3992H82.2324V15.3729ZM83.7458 8.79102V14.1882H84.7465C85.2859 14.1882 85.7216 14.0041 86.0292 13.6085C86.3367 13.2403 86.4905 12.7394 86.4905 12.1345V10.8447C86.4905 10.2386 86.3367 9.73897 86.0292 9.37078C85.7216 9.0026 85.2847 8.79102 84.7465 8.79102H83.7458Z" fill="white"/>
<path d="M93.2912 12.9511L93.3424 13.2667H93.3681L94.4457 9.58008H96.0883L93.8049 16.242C93.6512 16.6628 93.4205 17.0059 93.163 17.2952C92.8811 17.5845 92.4698 17.716 91.9316 17.716C91.8035 17.716 91.6753 17.716 91.5728 17.6897C91.4703 17.6634 91.3421 17.6371 91.1627 17.6108L91.3421 16.4787C91.3934 16.4787 91.4446 16.505 91.4959 16.505H91.624C91.8803 16.505 92.0598 16.4524 92.2147 16.3209C92.3429 16.1894 92.4454 16.0316 92.5223 15.8475L92.7017 15.4005L90.7002 9.60757H92.3429L93.2923 12.9511H93.2912Z" fill="white"/>
<path d="M100.245 9.58085L100.322 10.4236C100.501 10.1343 100.732 9.89643 101.015 9.73864C101.297 9.58085 101.606 9.50195 101.939 9.50195C102.504 9.50195 102.965 9.68604 103.273 10.0554C103.581 10.4236 103.76 11.0034 103.76 11.7935V15.4275H102.22V11.7935C102.22 11.399 102.143 11.1349 101.989 10.9508C101.835 10.793 101.605 10.7141 101.296 10.7141C101.091 10.7141 100.912 10.7667 100.757 10.8456C100.603 10.9245 100.475 11.056 100.347 11.2138V15.4263H98.832V9.63345H100.243V9.58085H100.245Z" fill="white"/>
<path d="M110.356 15.3722C110.304 15.2407 110.253 15.1092 110.202 14.9514C110.151 14.7936 110.125 14.6621 110.125 14.5043C109.971 14.7936 109.766 15.0315 109.509 15.2156C109.252 15.3997 108.944 15.5049 108.585 15.5049C107.994 15.5049 107.533 15.3471 107.225 15.0315C106.918 14.7159 106.738 14.2939 106.738 13.7417C106.738 13.1894 106.943 12.7411 107.38 12.4255C107.816 12.11 108.432 11.9522 109.254 11.9522H110.1V11.4788C110.1 11.1895 110.024 10.9791 109.895 10.8201C109.742 10.6623 109.537 10.5834 109.254 10.5834C108.997 10.5834 108.818 10.636 108.689 10.7675C108.56 10.899 108.483 11.0568 108.483 11.2672H107.021V11.2409C106.996 10.74 107.201 10.3192 107.638 9.97737C108.073 9.60918 108.664 9.4502 109.357 9.4502C110.05 9.4502 110.589 9.63429 111 9.97737C111.41 10.3192 111.642 10.8201 111.642 11.4776V13.8732C111.642 14.1362 111.667 14.4003 111.693 14.637C111.719 14.8737 111.796 15.1104 111.872 15.3483H110.358V15.3746L110.356 15.3722ZM108.945 14.3453C109.201 14.3453 109.459 14.2665 109.664 14.135C109.869 14.0035 110.022 13.8457 110.074 13.6616V12.8451H109.227C108.894 12.8451 108.662 12.924 108.482 13.0818C108.303 13.2396 108.226 13.45 108.226 13.6879C108.226 13.872 108.277 14.0298 108.405 14.1613C108.559 14.2928 108.739 14.3453 108.945 14.3453Z" fill="white"/>
<path d="M116.334 9.58064L116.385 10.3445C116.565 10.0552 116.795 9.84483 117.078 9.68584C117.36 9.52805 117.669 9.44915 118.028 9.44915C118.387 9.44915 118.695 9.52805 118.952 9.68584C119.208 9.84363 119.413 10.1066 119.542 10.4234C119.722 10.1078 119.952 9.86993 120.21 9.68584C120.492 9.50175 120.826 9.42285 121.185 9.42285C121.75 9.42285 122.186 9.60694 122.493 10.0026C122.826 10.3971 122.981 11.0032 122.981 11.7933V15.2946H121.467V11.767C121.467 11.3199 121.39 11.0295 121.262 10.8454C121.134 10.6613 120.903 10.5824 120.646 10.5824C120.441 10.5824 120.235 10.635 120.081 10.7402C119.926 10.8454 119.799 10.9769 119.696 11.161V15.3209H118.182V11.7933C118.182 11.3725 118.105 11.0558 117.977 10.8717C117.848 10.6876 117.618 10.6087 117.36 10.6087C117.155 10.6087 116.976 10.6613 116.821 10.7402C116.667 10.8191 116.539 10.9243 116.436 11.0821V15.3209H114.922V9.52805H116.333V9.58064H116.334Z" fill="white"/>
<path d="M127.907 8.18464H126.393V7H127.907V8.18464ZM127.907 15.3726H126.393V9.58086H127.907V15.3738V15.3726Z" fill="white"/>
<path d="M133.681 14.2933C133.963 14.2933 134.168 14.2144 134.323 14.0566C134.477 13.8988 134.58 13.6884 134.58 13.3979H135.965L135.99 13.4242C136.016 14.004 135.785 14.5036 135.349 14.8981C134.913 15.2926 134.348 15.4779 133.706 15.4779C132.859 15.4779 132.217 15.2149 131.756 14.6614C131.294 14.108 131.062 13.4242 131.062 12.5551V12.3974C131.062 11.5546 131.293 10.8433 131.756 10.2911C132.217 9.7376 132.859 9.47461 133.706 9.47461C134.399 9.47461 134.963 9.685 135.4 10.0807C135.836 10.4752 136.042 11.0286 136.016 11.6873V11.7136H134.631C134.631 11.4243 134.554 11.1601 134.4 10.976C134.246 10.7656 134.016 10.6867 133.733 10.6867C133.323 10.6867 133.04 10.8445 132.886 11.1601C132.732 11.4757 132.629 11.8977 132.629 12.3974V12.5551C132.629 13.0823 132.706 13.4768 132.886 13.7924C132.988 14.1343 133.27 14.2921 133.681 14.2921V14.2933Z" fill="white"/>
<path d="M86.3376 26.5097C86.3376 26.2204 86.2351 25.9562 86.0301 25.7984C85.825 25.6144 85.465 25.4566 84.9524 25.2713C84.0542 25.0083 83.361 24.6915 82.8997 24.3233C82.4384 23.9551 82.2065 23.4543 82.2065 22.8231C82.2065 22.1919 82.4628 21.6648 83.0022 21.2428C83.5416 20.8483 84.208 20.6367 85.0293 20.6367C85.8507 20.6367 86.5438 20.8734 87.0821 21.3217C87.5958 21.7688 87.8521 22.3485 87.8521 23.0072V23.0335H86.3633C86.3633 22.6653 86.2351 22.3748 86.0044 22.1644C85.7738 21.954 85.4394 21.8226 85.0037 21.8226C84.5936 21.8226 84.2849 21.9277 84.0542 22.1118C83.8235 22.2959 83.721 22.5326 83.721 22.8231C83.721 23.0861 83.8492 23.2965 84.0798 23.4818C84.3105 23.6396 84.7218 23.8236 85.3113 24.0089C86.1582 24.2456 86.7733 24.5624 87.2102 24.9569C87.6459 25.3514 87.8521 25.8785 87.8521 26.5109C87.8521 27.1433 87.5958 27.6955 87.0821 28.0912C86.5683 28.4857 85.9019 28.671 85.055 28.671C84.208 28.671 83.5148 28.4606 82.8997 28.0123C82.2834 27.5652 81.9758 26.9592 82.0015 26.169V26.1427H83.4904C83.4904 26.6161 83.6185 26.9592 83.9004 27.1696C84.1824 27.38 84.568 27.4852 85.055 27.4852C85.465 27.4852 85.7738 27.4063 86.0044 27.2222C86.2351 27.0381 86.3376 26.8014 86.3376 26.5109V26.5097Z" fill="white"/>
<path d="M90.8018 25.6151C90.8018 24.746 91.0324 24.0347 91.4949 23.4825C91.9574 22.9302 92.6238 22.666 93.4452 22.666C94.2665 22.666 94.934 22.929 95.421 23.4825C95.8824 24.0359 96.1398 24.746 96.1398 25.6151V25.7203C96.1398 26.5893 95.9091 27.3006 95.421 27.8528C94.9597 28.4063 94.2921 28.6693 93.4708 28.6693C92.6495 28.6693 91.9819 28.4063 91.5206 27.8528C91.0592 27.2994 90.8018 26.5893 90.8018 25.7203V25.6151ZM92.3163 25.7215C92.3163 26.2486 92.4188 26.6694 92.5982 26.985C92.7776 27.3006 93.0595 27.4584 93.4708 27.4584C93.8552 27.4584 94.164 27.3006 94.3434 26.985C94.5228 26.6694 94.6253 26.2474 94.6253 25.7215V25.6163C94.6253 25.0891 94.5228 24.6946 94.3434 24.3527C94.164 24.0371 93.8564 23.853 93.4708 23.853C93.0852 23.853 92.7776 24.0108 92.5982 24.3527C92.4188 24.6683 92.3163 25.0903 92.3163 25.6163V25.7215Z" fill="white"/>
<path d="M100.811 28.5638H99.296V20.1912H100.811V28.5638Z" fill="white"/>
<path d="M107.662 27.7226C107.483 28.0382 107.278 28.2498 106.995 28.4339C106.738 28.5917 106.43 28.6706 106.071 28.6706C105.48 28.6706 105.019 28.4865 104.686 28.0908C104.352 27.6963 104.172 27.0902 104.172 26.2738V22.7725H105.686V26.3001C105.686 26.7209 105.763 27.0376 105.891 27.2217C106.02 27.4058 106.225 27.511 106.508 27.511C106.738 27.511 106.969 27.4584 107.124 27.3795C107.303 27.3006 107.432 27.1691 107.56 27.0113V22.7725H109.074V28.5654H107.766L107.663 27.7226H107.662Z" fill="white"/>
<path d="M114.204 21.3495V22.7709H115.154V23.8766H114.204V26.8257C114.204 27.0623 114.256 27.2201 114.332 27.299C114.409 27.3779 114.537 27.4305 114.691 27.4305C114.768 27.4305 114.845 27.4305 114.896 27.4042C114.948 27.3779 115.024 27.3779 115.101 27.3516L115.229 28.4837C115.076 28.5363 114.922 28.5889 114.768 28.6152C114.614 28.6415 114.461 28.6678 114.281 28.6678C113.767 28.6678 113.357 28.51 113.075 28.2207C112.793 27.9314 112.64 27.4568 112.64 26.7994V23.8503H111.818V22.7446H112.64V21.3232H114.205V21.3495H114.204Z" fill="white"/>
<path d="M119.85 21.376H118.336V20.1914H119.85V21.376ZM119.85 28.564H118.336V22.7711H119.85V28.564Z" fill="white"/>
<path d="M123.006 25.6151C123.006 24.746 123.237 24.0347 123.699 23.4825C124.162 22.9302 124.828 22.666 125.649 22.666C126.471 22.666 127.138 22.929 127.625 23.4825C128.086 24.0359 128.344 24.746 128.344 25.6151V25.7203C128.344 26.5893 128.113 27.3006 127.625 27.8528C127.138 28.4063 126.496 28.6693 125.675 28.6693C124.854 28.6693 124.186 28.4063 123.725 27.8528C123.263 27.2994 123.006 26.5893 123.006 25.7203V25.6151ZM124.546 25.7215C124.546 26.2486 124.649 26.6694 124.828 26.985C125.007 27.3006 125.289 27.4584 125.701 27.4584C126.085 27.4584 126.394 27.3006 126.573 26.985C126.753 26.6694 126.855 26.2474 126.855 25.7215V25.6163C126.855 25.0891 126.753 24.6946 126.573 24.3527C126.394 24.0371 126.086 23.853 125.701 23.853C125.315 23.853 125.007 24.0108 124.828 24.3527C124.649 24.6683 124.546 25.0903 124.546 25.6163V25.7215Z" fill="white"/>
<path d="M132.834 22.7458L132.911 23.5885C133.09 23.2992 133.321 23.0614 133.604 22.9036C133.886 22.7458 134.195 22.6669 134.528 22.6669C135.093 22.6669 135.554 22.851 135.862 23.2203C136.17 23.5885 136.349 24.1683 136.349 24.9584V28.5925H134.809V24.9584C134.809 24.564 134.732 24.2998 134.578 24.1157C134.424 23.9579 134.194 23.879 133.885 23.879C133.68 23.879 133.501 23.9316 133.346 24.0105C133.192 24.0894 133.064 24.2209 132.936 24.3787V28.5913H131.421V22.7984H132.832V22.7458H132.834Z" fill="white"/>
<path d="M83.54 41.7286H82.5137V33.9346H83.54V41.7286Z" fill="white"/>
<path d="M86.7477 35.937L86.8246 36.806C87.004 36.4905 87.2603 36.2526 87.5434 36.0948C87.8253 35.937 88.1597 35.8318 88.5185 35.8318C89.1348 35.8318 89.5961 36.0159 89.9293 36.3853C90.2625 36.7534 90.4431 37.3069 90.4431 38.0708V41.7311H89.4167V38.0971C89.4167 37.5974 89.3142 37.228 89.1092 37.0176C88.9041 36.8072 88.6222 36.702 88.211 36.702C87.9034 36.702 87.6459 36.7809 87.4153 36.9124C87.1846 37.0702 87.0052 37.2543 86.8759 37.5185V41.7574H85.8495V35.9645H86.7477V35.9382V35.937Z" fill="white"/>
<path d="M93.3689 35.9372L93.4458 36.8063C93.6252 36.4907 93.8815 36.2528 94.1646 36.095C94.4466 35.9372 94.7809 35.832 95.1397 35.832C95.756 35.832 96.2174 36.0161 96.5506 36.3855C96.8837 36.7537 97.0643 37.3072 97.0643 38.071V41.7313H96.0379V38.0973C96.0379 37.5976 95.9354 37.2283 95.7304 37.0179C95.5253 36.8075 95.2434 36.7023 94.8322 36.7023C94.5246 36.7023 94.2671 36.7812 94.0365 36.9127C93.8058 37.0705 93.6264 37.2546 93.4971 37.5187V41.7576H92.4707V35.9647H93.3689V35.9384V35.9372Z" fill="white"/>
<path d="M98.8086 38.781C98.8086 37.912 99.0393 37.227 99.4761 36.6484C99.9375 36.095 100.554 35.8057 101.324 35.8057C102.094 35.8057 102.735 36.095 103.172 36.6484C103.633 37.2019 103.865 37.912 103.865 38.781V38.8862C103.865 39.7553 103.634 40.4665 103.197 41.0188C102.736 41.5723 102.12 41.8353 101.349 41.8353C100.579 41.8353 99.9643 41.5723 99.5018 41.0188C99.0404 40.4653 98.8086 39.7553 98.8086 38.8862V38.781ZM99.835 38.8862C99.835 39.4923 99.9631 40.0182 100.219 40.4139C100.476 40.8084 100.836 41.02 101.348 41.02C101.861 41.02 102.221 40.8096 102.477 40.4139C102.733 40.0194 102.862 39.5186 102.862 38.8862V38.781C102.862 38.1749 102.733 37.6753 102.477 37.2533C102.221 36.8588 101.835 36.6472 101.348 36.6472C100.861 36.6472 100.476 36.8576 100.245 37.2533C99.9887 37.6478 99.8606 38.1486 99.8606 38.781V38.8862H99.835Z" fill="white"/>
<path d="M107.481 40.0176L107.558 40.4121H107.583L107.686 40.0176L108.994 35.9365H110.046L107.968 41.7294H107.198L105.094 35.9365H106.146L107.48 40.0176H107.481Z" fill="white"/>
<path d="M114.898 41.7287C114.872 41.5446 114.846 41.3868 114.821 41.2553C114.795 41.1238 114.795 40.9923 114.795 40.8609C114.616 41.1501 114.36 41.3605 114.051 41.5721C113.743 41.7562 113.409 41.8614 113.05 41.8614C112.459 41.8614 112.024 41.7036 111.716 41.388C111.409 41.0724 111.255 40.6505 111.255 40.0982C111.255 39.5459 111.485 39.1239 111.922 38.8084C112.358 38.4928 112.949 38.335 113.693 38.335H114.822V37.7552C114.822 37.4133 114.719 37.1491 114.514 36.9388C114.309 36.7284 114.027 36.6495 113.667 36.6495C113.334 36.6495 113.077 36.7284 112.872 36.9125C112.667 37.0965 112.564 37.2806 112.564 37.5448H111.589V37.5185C111.563 37.0977 111.769 36.7021 112.18 36.3602C112.59 36.0183 113.129 35.833 113.771 35.833C114.413 35.833 114.926 35.9908 115.311 36.3327C115.696 36.6746 115.902 37.1491 115.902 37.7803V40.5716C115.902 40.782 115.902 40.966 115.928 41.1776C115.953 41.388 115.979 41.5721 116.03 41.7574H114.901V41.7311L114.898 41.7287ZM113.204 40.9397C113.588 40.9397 113.923 40.8346 114.205 40.6505C114.512 40.4664 114.692 40.2297 114.795 39.9655V39.0438H113.641C113.231 39.0438 112.896 39.149 112.64 39.3594C112.384 39.5698 112.256 39.8328 112.256 40.1233C112.256 40.3863 112.332 40.5704 112.486 40.7294C112.666 40.8871 112.896 40.9397 113.205 40.9397H113.204Z" fill="white"/>
<path d="M119.208 34.5407V35.9358H120.285V36.7259H119.208V40.2535C119.208 40.5165 119.259 40.7269 119.362 40.8333C119.464 40.9385 119.618 40.9911 119.797 40.9911C119.849 40.9911 119.925 40.9911 120.002 40.9648C120.079 40.9385 120.13 40.9385 120.182 40.9122L120.31 41.6235C120.233 41.6761 120.13 41.7287 119.977 41.7813C119.823 41.8338 119.669 41.8338 119.541 41.8338C119.131 41.8338 118.797 41.7024 118.54 41.4394C118.284 41.1764 118.181 40.7807 118.181 40.2284V36.7008H117.283V35.9107H118.181V34.5156H119.208V34.5419V34.5407Z" fill="white"/>
<path d="M121.826 38.7809C121.826 37.9118 122.057 37.2268 122.494 36.6483C122.929 36.0685 123.571 35.8055 124.341 35.8055C125.111 35.8055 125.752 36.0948 126.189 36.6483C126.65 37.2017 126.882 37.9118 126.882 38.7809V38.886C126.882 39.7551 126.651 40.4664 126.215 41.0186C125.779 41.5721 125.137 41.8351 124.367 41.8351C123.597 41.8351 122.982 41.5721 122.519 41.0186C122.058 40.4652 121.826 39.7551 121.826 38.886V38.7809ZM122.878 38.886C122.878 39.4921 123.006 40.0181 123.262 40.4138C123.519 40.8082 123.879 41.0198 124.391 41.0198C124.904 41.0198 125.264 40.8094 125.52 40.4138C125.777 40.0193 125.905 39.5184 125.905 38.886V38.7809C125.905 38.1748 125.777 37.6751 125.52 37.2531C125.264 36.8587 124.878 36.6471 124.391 36.6471C123.904 36.6471 123.519 36.8575 123.288 37.2531C123.032 37.6476 122.904 38.1485 122.904 38.7809V38.886H122.878Z" fill="white"/>
<path d="M131.372 36.8588L130.833 36.8325C130.551 36.8325 130.319 36.9114 130.14 37.0429C129.96 37.1744 129.807 37.3585 129.704 37.5964V41.7301H128.678V35.9372H129.602L129.704 36.7799C129.858 36.4906 130.063 36.2527 130.295 36.0687C130.525 35.9109 130.809 35.8057 131.116 35.8057C131.193 35.8057 131.27 35.8057 131.347 35.832C131.424 35.832 131.475 35.8583 131.526 35.8846L131.372 36.8588Z" fill="white"/>
<path d="M136.171 40.1759C136.171 39.9392 136.094 39.7551 135.914 39.5961C135.735 39.4383 135.427 39.3068 134.939 39.2016C134.246 39.0438 133.734 38.8334 133.399 38.5693C133.04 38.3063 132.885 37.9369 132.885 37.4898C132.885 37.0164 133.091 36.6208 133.476 36.2789C133.861 35.937 134.374 35.7792 134.991 35.7792C135.658 35.7792 136.171 35.9633 136.556 36.3064C136.941 36.6483 137.121 37.0702 137.121 37.5699V37.5962H136.146C136.146 37.3332 136.044 37.1228 135.839 36.9112C135.634 36.7009 135.352 36.5957 135.017 36.5957C134.659 36.5957 134.375 36.6746 134.196 36.8324C134.017 36.9901 133.94 37.2005 133.94 37.4384C133.94 37.6763 134.017 37.8592 134.17 37.9919C134.324 38.1234 134.657 38.2286 135.12 38.3338C135.839 38.4916 136.377 38.702 136.711 38.9661C137.07 39.2291 137.225 39.5985 137.225 40.0456C137.225 40.5728 137.02 40.9672 136.609 41.2828C136.199 41.5984 135.685 41.7562 135.017 41.7562C134.299 41.7562 133.735 41.5721 133.323 41.2027C132.913 40.8345 132.707 40.3863 132.733 39.8866V39.8603H133.708C133.734 40.2285 133.862 40.519 134.118 40.6767C134.374 40.8345 134.683 40.9397 135.016 40.9397C135.375 40.9397 135.658 40.8608 135.863 40.703C136.068 40.6242 136.171 40.4401 136.171 40.1759Z" fill="white"/>
<path d="M16.4141 36.1597V35.6146C17.1911 35.6146 17.7282 35.3934 18.0241 34.9499C18.3212 34.5064 18.4691 33.7354 18.4691 32.6345V20.9243C18.4691 19.8031 18.3212 19.0237 18.0241 18.5861C17.7282 18.1486 17.1911 17.9287 16.4141 17.9287V17.3848H24.7998C27.8987 17.3848 30.3767 18.2969 32.2348 20.121C34.093 21.9452 35.0227 24.2667 35.0227 27.083C35.0227 29.8994 34.142 32.0499 32.3816 33.6936C30.6213 35.3361 28.1713 36.1585 25.0304 36.1585H16.4141V36.1597ZM24.3116 18.1056H20.8656V31.9662C20.8656 33.3003 21.0205 34.2124 21.3292 34.7025C21.6379 35.1938 22.2566 35.4389 23.1839 35.4389H25.0537C27.2789 35.4389 29.0311 34.6941 30.3091 33.2071C31.5859 31.7188 32.2255 29.689 32.2255 27.1165C32.2255 24.385 31.5265 22.201 30.1308 20.5633C28.734 18.9256 26.7943 18.1068 24.3116 18.1068V18.1056Z" fill="white"/>
<path d="M44.526 17.7004H45.1481V22.2023H44.4887C44.3373 20.9578 43.82 19.9872 42.9335 19.2879C42.0481 18.5898 40.9331 18.2407 39.5887 18.2407C38.3958 18.2407 37.4346 18.5025 36.7065 19.0261C35.9772 19.5497 35.6137 20.2478 35.6137 21.1216C35.6137 21.9297 35.9155 22.6661 36.5178 23.3319C37.1201 23.9977 38.4272 24.8536 40.4357 25.902C42.7727 27.1129 44.342 28.1721 45.147 29.0782C45.9508 29.9843 46.3528 31.0207 46.3528 32.1886C46.3528 33.6948 45.7388 34.9823 44.5097 36.0521C43.2806 37.122 41.8011 37.6564 40.0699 37.6564C39.0668 37.6564 37.7865 37.4161 36.2324 36.9355C35.5928 36.7395 35.185 36.6415 35.0103 36.6415C34.6456 36.6415 34.3637 36.8865 34.1633 37.3778H33.5039V32.1874H34.1633C34.1761 33.6171 34.712 34.7635 35.7722 35.6254C36.8312 36.4873 38.0684 36.9188 39.485 36.9188C40.8271 36.9188 41.9013 36.608 42.7109 35.9852C43.5195 35.3624 43.9237 34.5328 43.9237 33.4952C43.9237 32.7194 43.5917 31.977 42.9276 31.267C42.2624 30.5569 40.8737 29.6412 38.7616 28.5211C37.0385 27.5971 35.8887 26.8667 35.312 26.3312C34.7353 25.7968 34.3089 25.2099 34.0328 24.5703C33.7567 23.932 33.6192 23.2303 33.6192 22.4652C33.6192 20.9913 34.175 19.7947 35.2864 18.8779C36.3978 17.961 37.8447 17.502 39.6283 17.502C40.6081 17.502 41.6764 17.6717 42.8309 18.0088C43.3703 18.1618 43.7478 18.2383 43.9622 18.2383C44.1381 18.2383 44.2569 18.206 44.3198 18.1403C44.3816 18.0745 44.4515 17.9275 44.5272 17.698L44.526 17.7004Z" fill="white"/>
<path d="M46.7015 45.1338C45.3175 45.5593 44.4496 45.1684 44.0954 43.9611C43.8065 42.9737 44.1432 40.6869 45.1078 37.0995C46.4312 32.3848 47.785 27.6606 49.1678 22.928C49.0781 22.836 48.964 22.7667 48.8242 22.7188C48.6844 22.6734 48.5784 22.6304 48.505 22.5933C47.8689 22.7894 47.0464 23.4612 46.0293 24.6112C45.0134 25.7623 44.269 26.7103 43.7948 27.4526L42.9863 26.6254C44.389 24.7582 45.4934 23.3727 46.2973 22.4654C47.9644 20.6377 49.3438 19.5546 50.44 19.2163C51.7087 18.8266 52.5126 19.2068 52.8493 20.3591C53.1382 21.3477 52.3332 24.8849 50.4342 30.9731C48.5376 37.0612 47.6766 40.4071 47.8526 41.0096C47.9656 41.3945 48.251 41.5153 48.7123 41.373C49.4055 41.1603 50.2571 40.4191 51.2695 39.1508C51.7332 38.5901 52.4066 37.6661 53.2885 36.3763L54.0958 37.2047C53.0229 38.9117 51.951 40.4071 50.8816 41.6934C49.3053 43.6132 47.912 44.762 46.7004 45.1338H46.7015Z" fill="white"/>
<path d="M63.0504 10.2234C63.0504 14.6439 59.5565 18.2289 55.2483 18.2289C50.9401 18.2289 47.4463 14.6439 47.4463 10.2234C47.4463 5.80277 50.939 2.21777 55.2483 2.21777C59.5577 2.21777 63.0504 5.80158 63.0504 10.2234Z" fill="white"/>
<path d="M74.4484 15.6696C74.015 14.1395 71.445 13.3661 67.4176 13.2668C67.4258 13.2716 67.4327 13.2764 67.4397 13.2812C67.4572 13.2812 67.4747 13.2836 67.491 13.2836C67.5236 13.2812 67.5562 13.2788 67.59 13.2788C67.6646 13.2788 67.7368 13.2848 67.8055 13.2931C67.823 13.2931 67.8405 13.2896 67.8591 13.2896C67.9512 13.2896 68.0374 13.2979 68.1213 13.3111C68.1795 13.3111 68.2378 13.3147 68.2925 13.3206C68.3822 13.3206 68.4661 13.329 68.5477 13.341C68.5791 13.3445 68.6094 13.3493 68.6397 13.3553C68.6432 13.3553 68.6478 13.3565 68.6513 13.3577C68.6851 13.3637 68.7201 13.3696 68.7539 13.378C68.8354 13.384 68.9135 13.3971 68.988 13.4139C69.108 13.4163 69.2175 13.4366 69.3212 13.4617C69.4307 13.4713 69.5309 13.4952 69.6276 13.5227C69.6952 13.5286 69.7604 13.5394 69.8222 13.5537C69.9049 13.5645 69.9829 13.58 70.0575 13.6004C70.167 13.6135 70.2707 13.635 70.3662 13.6685C71.3611 13.794 72.377 14.2829 72.8838 15.1197C73.231 15.6923 73.1366 16.4191 72.7557 16.9331C72.6671 17.1579 72.5343 17.3671 72.3665 17.5547C72.278 17.7209 72.1603 17.8703 72.0159 17.9934C71.9739 18.0425 71.9297 18.0891 71.8807 18.1297C71.7817 18.2827 71.6571 18.419 71.5056 18.5278C71.4287 18.6318 71.3402 18.7262 71.2353 18.8075C70.9767 19.147 70.6342 19.4351 70.2835 19.6945C69.2676 20.6257 68.0851 21.4577 66.8421 22.114C66.7699 22.1618 66.6906 22.2036 66.6056 22.2383C66.5939 22.2443 66.5811 22.2503 66.5695 22.2562C66.4774 22.3268 66.3784 22.3865 66.2689 22.4355C65.3089 23.0368 64.1999 23.6596 63.043 24.1617C63.0348 24.1677 63.0267 24.1748 63.0185 24.1808C62.9148 24.2442 62.8065 24.298 62.697 24.3482C62.6993 24.347 62.7016 24.3458 62.7051 24.3446C62.7005 24.347 62.6958 24.3494 62.6912 24.3518C62.6818 24.3566 62.6714 24.3613 62.6609 24.3661C62.3813 24.4952 62.1028 24.6279 61.8197 24.7498C61.8186 24.751 61.8162 24.7522 61.8151 24.7522C61.8885 24.72 61.963 24.6877 62.0376 24.6554C61.9374 24.7008 61.8419 24.7558 61.744 24.8036C61.7405 24.806 61.737 24.806 61.7347 24.8084C61.6997 24.8311 61.6683 24.861 61.6298 24.8813C61.4994 24.9495 61.3642 25.008 61.2291 25.0666C61.172 25.1025 61.1114 25.1336 61.0473 25.1622C60.9856 25.1957 60.9204 25.2256 60.8516 25.2495C60.7899 25.2842 60.7223 25.3117 60.6536 25.338C60.6443 25.3416 60.6338 25.3463 60.6244 25.3499C60.6221 25.3499 60.621 25.3523 60.6175 25.3535C60.6093 25.3571 60.6 25.3619 60.5907 25.3655C60.5779 25.3714 60.565 25.3774 60.5522 25.3834C60.4788 25.4288 60.3996 25.4659 60.3157 25.4982C60.2982 25.5065 60.2819 25.5161 60.2645 25.5233C60.2342 25.5388 60.205 25.5567 60.1724 25.5687C60.1526 25.5818 60.1328 25.5962 60.1107 25.6081C59.6517 25.8532 59.181 26.0456 58.7034 26.2178C58.5566 26.3313 58.3806 26.415 58.1791 26.4652C58.122 26.5011 58.0626 26.5322 57.9997 26.5597C57.8867 26.629 57.7585 26.6804 57.6199 26.7175C57.5267 26.776 57.423 26.8227 57.3123 26.8585C57.2622 26.8812 57.211 26.9016 57.1574 26.9183C57.1527 26.9207 57.1481 26.9219 57.1434 26.9231C57.0642 26.9673 56.9815 27.0056 56.8906 27.0342C56.8125 27.0737 56.7298 27.1096 56.6413 27.1347C56.6331 27.1382 56.6238 27.1406 56.6157 27.1442C56.5073 27.2159 56.3827 27.2685 56.2487 27.3092C56.1462 27.3666 56.0332 27.412 55.9108 27.4443C55.8526 27.4741 55.7955 27.5028 55.7314 27.5244C55.6417 27.571 55.5474 27.6128 55.4425 27.6403C55.3435 27.6977 55.2363 27.7431 55.1186 27.7778C55.0744 27.7957 55.0301 27.8136 54.9835 27.8292C54.9322 27.8519 54.8786 27.871 54.8227 27.8878C54.7505 27.9236 54.6783 27.9595 54.5979 27.9858C54.5466 28.0097 54.4919 28.0312 54.4359 28.0503C54.3625 28.091 54.2868 28.128 54.2029 28.1555C54.0853 28.2272 53.949 28.2775 53.8022 28.3133C53.7672 28.3289 53.7311 28.3408 53.6938 28.3528C53.6554 28.3707 53.6169 28.3874 53.5773 28.403C53.4527 28.4771 53.314 28.5357 53.1591 28.5691C53.0694 28.6134 52.975 28.6504 52.8713 28.6767C52.7851 28.7209 52.6919 28.7568 52.5917 28.7843C52.537 28.813 52.4787 28.8369 52.4182 28.8572C52.3401 28.9003 52.255 28.9337 52.1653 28.9612C52.0593 29.0186 51.9417 29.064 51.8147 29.0939C51.7413 29.125 51.6656 29.1525 51.5828 29.1728C51.5619 29.18 51.5421 29.1883 51.5211 29.1955C51.4663 29.2206 51.4128 29.2457 51.351 29.2625C51.3405 29.2684 51.3254 29.2708 51.3137 29.2768C51.3114 29.278 51.3079 29.2792 51.3056 29.2804C51.1891 29.3473 51.0586 29.3999 50.9141 29.4334C50.7988 29.4992 50.673 29.5518 50.532 29.5852C50.4435 29.6235 50.3503 29.6569 50.2477 29.6785C50.1347 29.743 50.0054 29.7872 49.8668 29.8207C49.748 29.8841 49.6163 29.9343 49.4707 29.9642C49.4416 29.9785 49.4124 29.994 49.381 30.0084C49.2563 30.0765 49.1177 30.1291 48.9639 30.1602C48.8859 30.1973 48.8066 30.2307 48.7181 30.2534C48.6202 30.2989 48.5131 30.3359 48.3977 30.361C48.3499 30.379 48.301 30.3957 48.2498 30.41C48.1193 30.4866 47.9725 30.5439 47.8094 30.5774C47.7407 30.6109 47.6673 30.6372 47.5904 30.6599C47.5391 30.6826 47.4843 30.7017 47.4284 30.7185C47.3084 30.777 47.1698 30.8141 47.0218 30.838C47.0125 30.8416 47.0009 30.844 46.9916 30.8488C46.917 30.8846 46.8354 30.9145 46.7504 30.9384C46.7329 30.9456 46.7154 30.9539 46.698 30.9611C46.698 30.9611 46.698 30.9623 46.6991 30.9635C46.6875 30.9659 46.677 30.9707 46.6665 30.9731C46.4801 31.0496 46.2926 31.1094 46.0992 31.156C45.9664 31.2313 45.8161 31.2863 45.6495 31.3174C45.5353 31.3664 45.4165 31.4082 45.2802 31.4285C45.2044 31.4572 45.1252 31.4811 45.0402 31.4979C44.9528 31.5469 44.8549 31.5827 44.7524 31.6126C44.6278 31.6784 44.4856 31.7214 44.3342 31.7513C44.2153 31.8134 44.0825 31.8601 43.9369 31.8888C43.9194 31.8947 43.8996 31.8971 43.8833 31.9019C43.7622 31.9629 43.6282 32.0071 43.4814 32.0346C43.3859 32.074 43.2868 32.1087 43.175 32.1278C43.0562 32.1852 42.9234 32.227 42.7789 32.2521C42.7416 32.2677 42.7032 32.2796 42.6647 32.2928C42.5529 32.3466 42.4282 32.386 42.2931 32.4111C42.1812 32.4602 42.0647 32.4996 41.9331 32.5199C41.883 32.5414 41.8283 32.5534 41.7758 32.5689C41.6721 32.6203 41.5556 32.6574 41.4321 32.6837C41.2795 32.765 41.1048 32.8224 40.9079 32.8463C40.8858 32.8558 40.8636 32.8618 40.8415 32.8714C40.7273 32.9252 40.6003 32.9634 40.4629 32.9861C40.3219 33.0531 40.1681 33.1033 39.9922 33.1236C39.8466 33.1989 39.6811 33.2503 39.4959 33.2742C39.4074 33.3149 39.3107 33.3435 39.2081 33.3663C39.1452 33.3961 39.0765 33.4201 39.0054 33.438C38.8843 33.493 38.7503 33.5312 38.6035 33.5527C38.5324 33.5743 38.4579 33.591 38.3798 33.603C38.2843 33.6424 38.1818 33.6711 38.0723 33.6926C37.9441 33.7536 37.7997 33.7966 37.6412 33.8193C37.5678 33.848 37.4898 33.8719 37.4071 33.8886C37.2719 33.9496 37.1216 33.9915 36.955 34.0106C36.8467 34.0536 36.7337 34.0883 36.6079 34.1062C36.5706 34.1218 36.531 34.1325 36.4925 34.1457C36.3632 34.2078 36.2164 34.2473 36.058 34.27C35.9659 34.3046 35.8658 34.3298 35.7597 34.3465C35.7574 34.3465 35.7551 34.3477 35.7527 34.3489C35.6188 34.4146 35.4708 34.4612 35.3054 34.484C35.1749 34.5401 35.0351 34.5844 34.8767 34.6023C34.7823 34.637 34.6798 34.6621 34.5726 34.68C34.4992 34.7099 34.42 34.7338 34.3373 34.7541C34.2545 34.7792 34.1672 34.7983 34.0751 34.8115C33.9784 34.8509 33.8748 34.882 33.7629 34.9023C33.735 34.9131 33.7035 34.9179 33.6732 34.9251C33.5777 34.9621 33.4763 34.9908 33.3668 35.0087C32.3835 35.3638 31.3385 35.5766 30.3098 35.781C30.2504 35.7977 30.1875 35.8109 30.1234 35.8204C30.0442 35.8443 29.9638 35.8646 29.8753 35.8754C29.8613 35.8802 29.8485 35.8838 29.8345 35.8874C29.7646 35.9148 29.6901 35.9364 29.612 35.9531C29.5689 35.9674 29.52 35.9722 29.4734 35.983C29.3778 36.0212 29.2741 36.0511 29.1635 36.0703C29.1006 36.0942 29.0353 36.1145 28.9619 36.1288C28.8757 36.1456 28.7907 36.1635 28.7033 36.1814C28.6136 36.2125 28.5157 36.2352 28.412 36.2496C28.3282 36.2735 28.242 36.2938 28.1488 36.3046C28.1173 36.3117 28.0893 36.3225 28.0567 36.3285C27.9647 36.3583 27.8692 36.3846 27.7655 36.3978C27.6758 36.4265 27.5826 36.4504 27.4824 36.4635C27.3822 36.4958 27.2773 36.5209 27.162 36.5317C27.0828 36.5556 26.9977 36.5735 26.9092 36.5855C26.8789 36.5938 26.8463 36.5974 26.816 36.6034C26.7263 36.6345 26.6308 36.6572 26.5294 36.6715C26.4805 36.6859 26.4245 36.6907 26.3721 36.7002C26.3383 36.711 26.2976 36.7134 26.2626 36.7217C26.2265 36.7337 26.1834 36.7373 26.1449 36.7457C26.0343 36.7851 25.9143 36.8126 25.785 36.8257C25.5147 36.8903 25.2397 36.9548 24.9648 37.0015C24.9613 37.0015 24.9578 37.0027 24.9531 37.0039C24.9473 37.0039 24.9415 37.0062 24.9368 37.0074C24.8914 37.0182 24.8425 37.0254 24.7947 37.0337C24.7027 37.0684 24.6001 37.0887 24.4941 37.1031C24.444 37.115 24.3904 37.1234 24.3357 37.1306C24.2658 37.1497 24.1924 37.1652 24.1155 37.1748C24.0969 37.1796 24.0782 37.1844 24.0584 37.1891C23.9466 37.2298 23.8219 37.2549 23.6903 37.268C23.6099 37.2896 23.5248 37.3051 23.4351 37.3135C23.3944 37.3218 23.3571 37.3338 23.314 37.3398C23.2499 37.3541 23.1835 37.3661 23.1136 37.3744C23.0833 37.3828 23.0542 37.3924 23.0216 37.3971H23.0192C22.9272 37.4234 22.8305 37.4426 22.7268 37.4509C22.6872 37.4605 22.6418 37.4641 22.5998 37.4713C22.5975 37.4713 22.5963 37.4713 22.594 37.4725C22.4915 37.5047 22.3808 37.5286 22.2631 37.5394C22.1734 37.5657 22.0767 37.5836 21.9766 37.5944C21.9008 37.6147 21.8181 37.6255 21.7342 37.6338C21.6713 37.6518 21.6049 37.6649 21.5373 37.6745C21.5071 37.6816 21.4721 37.6828 21.4407 37.6888C21.3288 37.7211 21.2088 37.7402 21.0795 37.7474C20.9362 37.7868 20.7906 37.8167 20.6368 37.8287C20.5366 37.8562 20.4306 37.8741 20.3164 37.8825C20.2756 37.8932 20.2349 37.9052 20.1918 37.9124C20.1498 37.9219 20.1032 37.9243 20.059 37.9303C20.0357 37.9363 20.0089 37.9375 19.9856 37.9434C19.7992 37.9829 19.6128 38.014 19.4275 38.0355C19.3774 38.0486 19.3203 38.0522 19.2668 38.0606C19.1992 38.0761 19.1293 38.0869 19.0559 38.0941C18.9895 38.1072 18.9242 38.1204 18.8532 38.1263C18.8089 38.1335 18.7658 38.1419 18.7192 38.1455C18.6936 38.1514 18.6633 38.1538 18.6376 38.1586C18.6318 38.1598 18.626 38.1598 18.6213 38.161C18.5736 38.1694 18.527 38.1801 18.4769 38.1849C18.4571 38.1885 18.4349 38.1921 18.4151 38.1945C18.4128 38.1945 18.4105 38.1957 18.4081 38.1957C18.4012 38.1981 18.393 38.1981 18.386 38.1993C18.3522 38.204 18.3196 38.21 18.2847 38.2136C18.2509 38.2184 18.2194 38.2256 18.1856 38.2279H18.1845C18.1647 38.2303 18.1472 38.2351 18.1274 38.2363C18.054 38.2542 17.9759 38.2638 17.8967 38.2734C17.8256 38.2889 17.7511 38.2997 17.673 38.3068C17.6695 38.3068 17.6672 38.3068 17.6637 38.308C17.5647 38.3343 17.4587 38.3523 17.3457 38.3594C17.3224 38.363 17.2979 38.3642 17.2746 38.3666C17.2303 38.3774 17.1826 38.3845 17.1348 38.3917C17.0649 38.4073 16.988 38.412 16.9123 38.418C16.8808 38.4252 16.8447 38.4252 16.8109 38.4312C16.7434 38.4443 16.6711 38.4527 16.5977 38.4575C16.5884 38.4599 16.5779 38.461 16.5686 38.4634C16.4859 38.4838 16.3973 38.4957 16.3053 38.5041C16.2412 38.5148 16.1737 38.522 16.1038 38.5268C16.0385 38.5376 15.9733 38.5507 15.9034 38.5543C15.8626 38.5615 15.816 38.5615 15.7729 38.5674C15.6995 38.5842 15.6203 38.5949 15.5399 38.6033C15.4525 38.6176 15.3605 38.6272 15.2626 38.6272C15.1718 38.6451 15.0774 38.6595 14.976 38.6619C14.9702 38.6619 14.9644 38.6619 14.9586 38.6631C14.9131 38.6714 14.863 38.6738 14.8153 38.6786C14.7186 38.7001 14.6149 38.7121 14.5054 38.7157C14.404 38.736 14.2992 38.7479 14.185 38.7491C14.0906 38.7683 13.9916 38.7814 13.8856 38.7838C13.7854 38.8029 13.6817 38.8161 13.5687 38.8161C13.5582 38.8161 13.5477 38.8149 13.5373 38.8137C13.4592 38.828 13.3788 38.8388 13.2938 38.8436C13.2635 38.8472 13.2309 38.8472 13.1994 38.8484C13.112 38.8615 13.0223 38.8711 12.9268 38.8711C12.9221 38.8711 12.9186 38.8711 12.914 38.8711C12.8814 38.8735 12.8511 38.8794 12.8173 38.8794C12.766 38.8878 12.7101 38.8914 12.6553 38.8938C12.5994 38.9033 12.54 38.9045 12.4818 38.9081C12.3944 38.9225 12.3035 38.9308 12.208 38.932C11.7967 38.9775 11.3843 39.0002 10.9707 39.0133C10.8671 39.0324 10.7564 39.0456 10.6387 39.0456C10.6306 39.0456 10.6224 39.0444 10.6143 39.0444C10.175 39.0886 9.74283 39.097 9.36886 39.0767C9.35488 39.0767 9.3409 39.0767 9.32692 39.0755C9.31644 39.0755 9.30595 39.0767 9.29547 39.0767C9.26634 39.0767 9.23955 39.0743 9.21159 39.0719C9.14285 39.0803 9.07179 39.0862 8.99723 39.0862C8.93082 39.0862 8.86791 39.0815 8.80733 39.0755C8.80151 39.0755 8.79568 39.0755 8.78869 39.0755C8.78287 39.0755 8.77704 39.0755 8.77238 39.0755C8.45317 39.0922 8.13512 39.0946 7.81941 39.0779C7.74368 39.0815 7.51068 39.0671 7.47573 39.0647C7.42796 39.0683 7.38136 39.0719 7.33127 39.0719C7.26137 39.0719 7.20079 39.0599 7.13555 39.0528C7.0971 39.0552 7.05866 39.0587 7.01905 39.0587C6.94332 39.0587 6.87109 39.0528 6.80119 39.0444C6.79886 39.0444 6.79653 39.0444 6.7942 39.0444C6.77906 39.0444 6.76391 39.042 6.74877 39.042C6.73246 39.042 6.71848 39.0444 6.70217 39.0444C6.66139 39.0444 6.62528 39.036 6.58567 39.0324C6.55538 39.0336 6.52742 39.0372 6.49596 39.0372C6.39227 39.0372 6.29558 39.0253 6.20354 39.0097C6.17675 39.0073 6.14879 39.005 6.12316 39.0026C6.11733 39.0026 6.11151 39.0038 6.10452 39.0038C6.002 39.0038 5.90647 38.9942 5.81327 38.9775C5.80395 38.9775 5.79346 38.9763 5.78298 38.9751C5.77715 38.9751 5.77133 38.9751 5.76667 38.9751C5.63619 38.9751 5.51503 38.9619 5.40086 38.938C5.35775 38.9332 5.31115 38.9332 5.26921 38.9249C5.23659 38.9213 5.20047 38.9213 5.16785 38.9165C5.12358 38.9117 5.08281 38.901 5.0397 38.8938C4.95932 38.8878 4.88243 38.877 4.80903 38.8615C4.63778 38.8543 4.47934 38.828 4.33837 38.7778C4.30458 38.773 4.27313 38.7635 4.24051 38.7563C4.21604 38.7515 4.19041 38.7491 4.16478 38.7444C4.1275 38.7396 4.09255 38.7312 4.05644 38.724C3.95625 38.7133 3.85955 38.6906 3.76519 38.6607C3.68946 38.6451 3.61723 38.626 3.5485 38.5997C3.53452 38.5961 3.51821 38.5961 3.50539 38.5913C3.41103 38.5746 3.32132 38.5543 3.23744 38.522C3.14424 38.4993 3.05803 38.4694 2.97764 38.4312C2.86347 38.4001 2.75513 38.3606 2.65843 38.3056C2.493 38.2578 2.34738 38.1873 2.21922 38.0953C2.12486 38.0486 2.03748 37.9948 1.95826 37.9303C1.91749 37.9088 1.88487 37.8789 1.84875 37.8526C1.64488 37.733 1.48411 37.5681 1.36411 37.3756C1.2581 37.2238 1.17305 37.0565 1.12528 36.8771C1.12528 36.8736 1.12528 36.87 1.12412 36.8664C1.11829 36.8497 1.11014 36.8329 1.10548 36.8162C0.980824 36.3524 1.088 35.9794 1.26625 35.5562C1.35479 35.347 1.46314 35.1199 1.59828 34.937C1.60061 34.9346 1.60294 34.931 1.60527 34.9286C1.66352 34.8187 1.73458 34.7171 1.82196 34.6262C1.87089 34.5521 1.92098 34.4792 1.98389 34.4134C2.06195 34.2915 2.15049 34.1744 2.25418 34.0704C2.33456 33.9568 2.43592 33.8588 2.54776 33.7715C2.57688 33.7416 2.61067 33.7165 2.64212 33.689C2.69455 33.634 2.75047 33.5838 2.81221 33.5372C2.846 33.5073 2.87745 33.4774 2.91124 33.4487C2.96017 33.3926 3.01376 33.3412 3.07084 33.2921C3.10929 33.2491 3.15705 33.2156 3.20016 33.1774C3.26423 33.1081 3.3353 33.0459 3.41452 32.9909C3.44714 32.9598 3.4786 32.9264 3.51588 32.8989C3.53219 32.8833 3.55083 32.869 3.5683 32.8546C3.65102 32.7614 3.75004 32.6813 3.85839 32.612C3.89567 32.5809 3.93411 32.551 3.97489 32.5235C4.03663 32.4602 4.10537 32.4028 4.17876 32.3502C4.18925 32.3382 4.19973 32.3275 4.21022 32.3167C1.19868 34.4684 -0.344952 36.3966 0.0651296 37.8466C1.27441 42.119 18.9068 40.6164 39.447 34.4923C59.9872 28.3683 75.6588 19.9408 74.4484 15.6696Z" fill="white"/>
</g>
<defs>
<clipPath id="clip0_6679_6539">
<rect width="137" height="48" fill="white"/>
</clipPath>
</defs>
</svg>
